<svg xmlns="http://www.w3.org/2000/svg" viewBox="0 0 320 320">
  <g fill="#ffffff" fill-opacity="0.05">
    <rect x="0" y="0" width="40" height="40"/>
    <rect x="80" y="0" width="40" height="40"/>
    <rect x="160" y="0" width="40" height="40"/>
    <rect x="240" y="0" width="40" height="40"/>
    <rect x="40" y="40" width="40" height="40"/>
    <rect x="120" y="40" width="40" height="40"/>
    <rect x="200" y="40" width="40" height="40"/>
    <rect x="280" y="40" width="40" height="40"/>
    <rect x="0" y="80" width="40" height="40"/>
    <rect x="80" y="80" width="40" height="40"/>
    <rect x="160" y="80" width="40" height="40"/>
    <rect x="240" y="80" width="40" height="40"/>
    <rect x="40" y="120" width="40" height="40"/>
    <rect x="120" y="120" width="40" height="40"/>
    <rect x="200" y="120" width="40" height="40"/>
    <rect x="280" y="120" width="40" height="40"/>
    <rect x="0" y="160" width="40" height="40"/>
    <rect x="80" y="160" width="40" height="40"/>
    <rect x="160" y="160" width="40" height="40"/>
    <rect x="240" y="160" width="40" height="40"/>
    <rect x="40" y="200" width="40" height="40"/>
    <rect x="120" y="200" width="40" height="40"/>
    <rect x="200" y="200" width="40" height="40"/>
    <rect x="280" y="200" width="40" height="40"/>
    <rect x="0" y="240" width="40" height="40"/>
    <rect x="80" y="240" width="40" height="40"/>
    <rect x="160" y="240" width="40" height="40"/>
    <rect x="240" y="240" width="40" height="40"/>
    <rect x="40" y="280" width="40" height="40"/>
    <rect x="120" y="280" width="40" height="40"/>
    <rect x="200" y="280" width="40" height="40"/>
    <rect x="280" y="280" width="40" height="40"/>
  </g>
</svg>
